<svg xmlns="http://www.w3.org/2000/svg" width="200" height="40" viewBox="0 0 200 40">
    <defs>
        <style>
            .cls-2{fill:#fff}
        </style>
    </defs>
    <g id="img_header_logo" transform="translate(-148 -50.717)">
        <path id="pops" d="M6.768-5.723a1.327 1.327 0 0 0 1.065-.527 4.5 4.5 0 0 0 .717-1.287 7.921 7.921 0 0 0 .411-1.581 9.594 9.594 0 0 0 .127-1.434 2.181 2.181 0 0 0-.19-.959.821.821 0 0 0-.822-.39h-.949L5.8-5.723zM5.5-4.374L4.554.054H0l2.847-13.389h4.87a17.4 17.4 0 0 1 2.193.127 4.977 4.977 0 0 1 1.708.506 2.726 2.726 0 0 1 1.118 1.086 3.82 3.82 0 0 1 .4 1.887 6.164 6.164 0 0 1-.348 2.077 4.3 4.3 0 0 1-1.118 1.708A5.431 5.431 0 0 1 9.678-4.8a9.179 9.179 0 0 1-2.973.422zm13.79-4.871a5.972 5.972 0 0 1 3.648.886 3.651 3.651 0 0 1 1.2 3.078 6.18 6.18 0 0 1-.438 2.394 4.656 4.656 0 0 1-1.244 1.761A7.022 7.022 0 0 1 17.817.223a5.559 5.559 0 0 1-3.711-.991 3.864 3.864 0 0 1-1.2-3.1 5.485 5.485 0 0 1 .559-2.488 4.929 4.929 0 0 1 1.613-1.856 7.486 7.486 0 0 1 4.215-1.032zm-1.431 8.034a1.106 1.106 0 0 0 .917-.59 4.971 4.971 0 0 0 .624-1.445 12.945 12.945 0 0 0 .348-1.771 12.926 12.926 0 0 0 .116-1.592 2.655 2.655 0 0 0-.116-.9.474.474 0 0 0-.5-.306 1.177 1.177 0 0 0-.98.611 5.344 5.344 0 0 0-.664 1.455 10.959 10.959 0 0 0-.369 1.729 11.547 11.547 0 0 0-.116 1.434q.002 1.375.74 1.375zm13.558-4.512a1.327 1.327 0 0 0 1.065-.527 4.5 4.5 0 0 0 .718-1.287 7.921 7.921 0 0 0 .411-1.581 9.6 9.6 0 0 0 .127-1.434 2.181 2.181 0 0 0-.19-.959.821.821 0 0 0-.822-.39h-.949l-1.33 6.178zm-1.265 1.349L29.2.054h-4.551L27.5-13.335h4.871a17.4 17.4 0 0 1 2.193.127 4.977 4.977 0 0 1 1.708.506 2.726 2.726 0 0 1 1.118 1.086 3.82 3.82 0 0 1 .4 1.887 6.164 6.164 0 0 1-.348 2.077 4.3 4.3 0 0 1-1.118 1.708A5.431 5.431 0 0 1 34.327-4.8a9.179 9.179 0 0 1-2.973.422zm14.022-1.94l.042-.211a1.186 1.186 0 0 0 .021-.232 1.808 1.808 0 0 0-.137-.706.527.527 0 0 0-.538-.327 1.109 1.109 0 0 0-.717.306 1.014 1.014 0 0 0-.358.812.776.776 0 0 0 .179.538 1.324 1.324 0 0 0 .474.327 3.885 3.885 0 0 0 .66.207l.727.169a7.66 7.66 0 0 1 .959.306 3 3 0 0 1 .812.474 2.151 2.151 0 0 1 .569.727 2.416 2.416 0 0 1 .211 1.065 2.571 2.571 0 0 1-.411 1.487 2.976 2.976 0 0 1-1.139.97 5.6 5.6 0 0 1-1.708.517 14.107 14.107 0 0 1-2.1.148A13.114 13.114 0 0 1 38.9.012a7.141 7.141 0 0 1-1.56-.485l.443-2.109h2.847a1.022 1.022 0 0 0-.021.2v.2a1.222 1.222 0 0 0 .221.77.92.92 0 0 0 .77.285 1.028 1.028 0 0 0 .875-.348 1.1 1.1 0 0 0 .264-.643.708.708 0 0 0-.221-.517 1.953 1.953 0 0 0-.559-.38 4.892 4.892 0 0 0-.749-.274l-.791-.221a3.825 3.825 0 0 1-.619-.21 2.515 2.515 0 0 1-.664-.422 2.189 2.189 0 0 1-.527-.706 2.471 2.471 0 0 1-.209-1.086 2.561 2.561 0 0 1 .453-1.55 3.354 3.354 0 0 1 1.181-1 5.805 5.805 0 0 1 1.645-.548A10.18 10.18 0 0 1 43.52-9.2a10.952 10.952 0 0 1 2.193.211 6.6 6.6 0 0 1 1.687.548l-.485 2.13z" class="cls-2" transform="translate(298.69 76.852)"/>
        <path id="megazone" fill="#fff" d="M98.111 11.92V0H107v2.8h-6.161v1.724H107v2.609h-6.161v1.915H107v2.872zm-7 0l-4.376-8.9v8.9h-2.771V0h4.559l4.353 8.88V0h2.771v11.92zm-34.27 0V9.039l5.847-6.181h-5.71V0h10.193v2.859l-5.938 6.18h6.141v2.88zm-4.3 0l-.776-2.028h-6.024l-.78 2.028H41.79L46.618 0h4.307l4.766 11.92zm-5.824-4.632h4.061l-1.746-4.515h-.56zM17.179 11.92L17.183 0h8.889v2.8h-6.158v1.724h6.158v2.609h-6.158v1.915h6.154v2.872zm-5.4 0L11.85 3l-3.439 8.92h-2.3L2.679 3h-.01l.059 8.918H0V0h4.543l2.712 7.734L9.967 0h4.543v11.92zm19.076-.242a2.253 2.253 0 0 1-1.844-1.8 8.287 8.287 0 0 1-.211-1.653c-.016-.769-.026-1.6-.026-2.482a20.554 20.554 0 0 1 .167-3.143 3.138 3.138 0 0 1 .8-1.778 1.77 1.77 0 0 1 .749-.434 7.108 7.108 0 0 1 1.265-.243A29.393 29.393 0 0 1 34.889.01a16.944 16.944 0 0 1 3.587.258 2.4 2.4 0 0 1 1.5.941 4.022 4.022 0 0 1 .475 1.9c.01.219.019.579.019 1.061h-2.692a3.782 3.782 0 0 0-.036-.638.639.639 0 0 0-.57-.521 19.108 19.108 0 0 0-2.525-.1 11.815 11.815 0 0 0-2.319.144.979.979 0 0 0-.747.878 13.058 13.058 0 0 0-.1 1.99 15.553 15.553 0 0 0 .1 2.244.964.964 0 0 0 .881.9c.239.029.976.05 2.185.079a23.631 23.631 0 0 0 2.571-.1.674.674 0 0 0 .6-.6 7.344 7.344 0 0 0 .049-.929h-2.844V5.205h5.45c.013.248.013.416.013.491 0 1.51-.029 2.679-.1 3.5a2.39 2.39 0 0 1-1.743 2.415 9.1 9.1 0 0 1-1.778.257c-.685.027-1.5.044-2.434.044-.189.007-.378.01-.566.01a18.983 18.983 0 0 1-3.011-.245zm40.447.055a2.206 2.206 0 0 1-1.9-1.922 30.559 30.559 0 0 1 0-7.694A2.231 2.231 0 0 1 71.3.193 28.694 28.694 0 0 1 75.314.01a26.12 26.12 0 0 1 3.858.182 2.231 2.231 0 0 1 1.9 1.923 30.547 30.547 0 0 1 0 7.694 2.223 2.223 0 0 1-1.9 1.922q-1.963.184-3.934.185t-3.938-.183zm1.378-8.555a1 1 0 0 0-.68.805 11.493 11.493 0 0 0-.147 2.276 10.219 10.219 0 0 0 .079 1.55 1.122 1.122 0 0 0 .979 1.009 27.66 27.66 0 0 0 4.651 0 1.106 1.106 0 0 0 .969-1.009 9.469 9.469 0 0 0 .089-1.491c0-.834-.02-1.425-.049-1.775a1.837 1.837 0 0 0-.416-1.163 2.165 2.165 0 0 0-1.222-.327c-.223-.02-.822-.02-1.8-.02-.188-.01-.376-.014-.564-.014a11.257 11.257 0 0 0-1.889.159z" opacity="0.7" transform="translate(184 64.718)"/>
        <path id="패스_35712" d="M3193.928 4436.571a4.784 4.784 0 0 0-3.4-1.41 4.853 4.853 0 0 0-1.106.134.816.816 0 0 1-1-.818 1.319 1.319 0 0 1 .007-.132 4.8 4.8 0 0 0-9.114-2.121.816.816 0 0 1-.981.417 4.807 4.807 0 0 0-6.277 4.583 4.865 4.865 0 0 0 .1.97.818.818 0 0 1-.174.688 7.086 7.086 0 1 0 11.573 8.081.815.815 0 0 1 1.112-.3.817.817 0 0 1 .3 1.114 8.741 8.741 0 0 1-1.421 1.85 4.8 4.8 0 0 0 6.084-3.768l.113-.032a.8.8 0 0 1-.033-.22.815.815 0 0 1 .814-.815 4.821 4.821 0 0 0 3.405-8.218zm-13.1-2.03a6.436 6.436 0 0 1 8.043 3.892.814.814 0 1 1-1.527.566 4.81 4.81 0 0 0-6-2.908.813.813 0 0 1-1.027-.52.817.817 0 0 1 .517-1.029z" class="cls-2" transform="translate(-3022.328 -4369.813)"/>
    </g>
</svg>
